<svg xmlns="http://www.w3.org/2000/svg"
     viewBox="0 0 262 312"
     role="img"
     aria-labelledby="title">
  <title id="title">Fingerprint icon</title>
  <g fill="#000000">
    <path d="M 96 264 L 96 265 L 97 265 L 100 268 L 103 268 L 106 270 L 110 270 L 111 271 L 116 272 L 119 274 L 128 274 L 129 275 L 137 275 L 139 276 L 140 275 L 145 275 L 146 274 L 148 274 L 149 272 L 150 274 L 159 273 L 159 271 L 157 269 L 151 269 L 150 270 L 148 270 L 147 272 L 145 271 L 136 271 L 134 274 L 133 272 L 131 272 L 130 271 L 126 271 L 125 270 L 122 270 L 118 268 L 115 268 L 114 267 L 107 266 L 106 265 L 104 265 L 100 263 L 98 263 Z"/><path d="M 127 250 L 128 249 L 129 250 L 128 251 Z"/><path d="M 205 229 L 204 229 L 200 237 L 193 245 L 193 246 L 191 248 L 190 248 L 190 249 L 187 252 L 186 252 L 180 258 L 179 260 L 174 261 L 172 263 L 167 265 L 167 268 L 168 269 L 170 269 L 173 267 L 176 267 L 178 265 L 179 265 L 179 264 L 181 262 L 183 262 L 185 261 L 194 252 L 194 250 L 195 249 L 197 249 L 197 248 L 201 244 L 201 243 L 203 241 L 205 237 L 207 236 L 206 234 L 206 232 L 205 231 Z"/><path d="M 65 229 L 64 230 L 64 232 L 65 234 L 67 236 L 68 239 L 74 245 L 74 247 L 77 250 L 77 251 L 80 254 L 80 255 L 84 259 L 86 259 L 89 262 L 91 261 L 93 261 L 93 260 L 76 243 L 76 242 L 74 240 L 74 239 L 72 237 L 72 236 L 70 234 L 68 230 L 67 229 Z"/><path d="M 57 207 L 56 209 L 56 212 L 57 213 L 57 215 L 59 218 L 62 218 L 62 216 L 59 210 L 59 208 Z"/><path d="M 216 205 L 215 205 L 215 206 L 213 208 L 212 213 L 208 220 L 208 222 L 207 223 L 207 227 L 209 227 L 211 226 L 213 222 L 213 220 L 216 215 L 216 213 L 218 210 Z"/><path d="M 53 187 L 52 188 L 52 197 L 53 198 L 53 202 L 56 202 L 57 201 L 57 194 L 56 193 L 56 189 L 54 187 Z"/><path d="M 227 143 L 224 143 L 224 145 L 223 146 L 223 152 L 224 153 L 224 161 L 223 162 L 223 174 L 222 175 L 222 179 L 221 180 L 221 187 L 220 188 L 220 191 L 219 192 L 219 197 L 218 198 L 218 200 L 219 202 L 222 201 L 223 199 L 223 196 L 224 195 L 224 192 L 225 191 L 225 188 L 226 187 L 226 182 L 227 181 L 227 173 L 228 172 L 228 145 Z"/><path d="M 181 95 L 180 95 L 179 97 L 180 99 L 183 102 L 183 103 L 187 107 L 191 115 L 193 117 L 193 119 L 196 124 L 196 127 L 197 128 L 197 130 L 199 134 L 199 137 L 200 138 L 200 145 L 201 146 L 201 168 L 200 169 L 200 176 L 199 177 L 198 184 L 197 185 L 197 187 L 196 188 L 196 190 L 195 191 L 194 196 L 187 210 L 187 212 L 185 214 L 183 219 L 177 226 L 177 227 L 167 237 L 166 237 L 163 240 L 160 241 L 158 243 L 156 243 L 155 244 L 153 244 L 152 245 L 150 245 L 146 247 L 143 247 L 142 248 L 125 248 L 121 246 L 118 246 L 117 245 L 115 245 L 111 243 L 106 239 L 103 238 L 94 229 L 94 228 L 90 223 L 89 220 L 87 218 L 84 212 L 84 210 L 83 209 L 83 207 L 81 203 L 81 197 L 80 196 L 80 192 L 79 191 L 80 189 L 79 187 L 79 176 L 80 175 L 80 167 L 81 166 L 81 161 L 82 160 L 82 157 L 83 156 L 84 151 L 86 148 L 86 146 L 89 140 L 91 138 L 93 134 L 96 131 L 96 130 L 99 127 L 99 126 L 112 114 L 122 109 L 124 109 L 128 107 L 135 107 L 136 106 L 144 106 L 145 107 L 149 107 L 150 108 L 153 108 L 159 111 L 161 113 L 162 113 L 169 120 L 174 130 L 174 132 L 176 136 L 176 139 L 177 140 L 177 145 L 178 146 L 178 149 L 179 150 L 179 168 L 178 169 L 178 174 L 177 175 L 176 182 L 174 185 L 174 187 L 173 188 L 172 193 L 170 195 L 169 198 L 166 201 L 163 207 L 158 212 L 157 212 L 148 220 L 140 224 L 136 224 L 135 225 L 129 225 L 128 224 L 125 224 L 119 221 L 110 211 L 109 208 L 106 204 L 106 201 L 105 200 L 105 198 L 104 197 L 104 195 L 102 191 L 102 170 L 103 169 L 103 164 L 104 163 L 105 156 L 111 144 L 113 142 L 113 141 L 124 130 L 128 128 L 133 127 L 134 126 L 145 126 L 146 127 L 148 127 L 150 128 L 152 130 L 154 130 L 162 138 L 166 146 L 166 148 L 167 149 L 167 157 L 168 158 L 168 164 L 167 165 L 167 170 L 166 171 L 165 180 L 163 183 L 163 185 L 161 187 L 158 194 L 157 195 L 155 195 L 153 193 L 152 190 L 157 181 L 157 179 L 159 175 L 160 166 L 161 165 L 161 154 L 160 153 L 160 148 L 159 147 L 159 145 L 157 143 L 157 142 L 151 136 L 150 136 L 148 134 L 146 134 L 145 133 L 141 133 L 140 132 L 138 133 L 133 133 L 130 135 L 128 135 L 127 137 L 124 138 L 118 144 L 111 158 L 111 160 L 110 161 L 110 165 L 109 166 L 109 175 L 108 176 L 108 183 L 109 184 L 109 190 L 110 191 L 110 195 L 111 196 L 112 201 L 115 207 L 120 213 L 120 214 L 121 214 L 124 217 L 126 218 L 129 218 L 130 219 L 134 219 L 136 218 L 136 217 L 134 218 L 132 216 L 126 213 L 121 208 L 120 205 L 118 203 L 118 201 L 116 198 L 116 196 L 114 193 L 114 190 L 113 189 L 113 180 L 112 179 L 113 178 L 113 174 L 112 173 L 113 172 L 113 169 L 114 168 L 114 164 L 115 163 L 115 160 L 118 155 L 118 153 L 120 149 L 123 146 L 123 145 L 129 139 L 131 138 L 134 138 L 135 137 L 145 137 L 146 138 L 148 138 L 152 142 L 156 150 L 156 156 L 157 157 L 156 158 L 156 167 L 155 168 L 155 172 L 154 173 L 154 176 L 151 182 L 146 188 L 146 192 L 150 194 L 152 196 L 152 197 L 150 200 L 149 199 L 147 199 L 145 198 L 142 195 L 141 195 L 138 192 L 136 188 L 136 186 L 134 183 L 134 180 L 133 179 L 133 173 L 134 172 L 134 169 L 137 166 L 139 166 L 139 159 L 136 159 L 134 160 L 132 163 L 132 165 L 131 166 L 131 170 L 130 171 L 130 175 L 129 176 L 129 181 L 130 182 L 130 186 L 131 187 L 131 189 L 134 193 L 134 194 L 142 202 L 144 203 L 142 205 L 142 206 L 141 207 L 138 207 L 134 204 L 133 204 L 128 198 L 125 192 L 125 190 L 124 189 L 124 184 L 123 183 L 123 173 L 124 172 L 124 168 L 125 167 L 126 162 L 129 156 L 133 152 L 135 152 L 135 150 L 137 148 L 138 148 L 139 146 L 141 146 L 145 149 L 145 166 L 144 167 L 144 170 L 143 172 L 140 175 L 138 179 L 138 183 L 140 183 L 145 178 L 145 177 L 148 173 L 148 171 L 149 170 L 149 167 L 150 166 L 150 151 L 148 147 L 146 145 L 142 143 L 137 143 L 131 146 L 125 153 L 123 157 L 123 159 L 121 162 L 121 165 L 120 166 L 120 170 L 119 171 L 119 185 L 120 186 L 120 190 L 121 191 L 121 194 L 126 204 L 131 209 L 135 211 L 136 213 L 136 215 L 137 215 L 137 214 L 139 212 L 144 211 L 146 209 L 151 207 L 153 205 L 154 205 L 160 199 L 160 198 L 164 193 L 168 185 L 168 183 L 169 182 L 169 180 L 171 176 L 171 172 L 172 171 L 172 151 L 171 150 L 171 147 L 170 146 L 170 144 L 169 143 L 168 138 L 160 129 L 159 129 L 156 126 L 154 126 L 152 124 L 149 124 L 148 123 L 145 123 L 144 122 L 134 122 L 133 123 L 130 123 L 129 124 L 127 124 L 121 127 L 118 130 L 117 130 L 111 136 L 110 139 L 106 144 L 102 152 L 102 154 L 100 158 L 100 162 L 99 163 L 99 168 L 98 169 L 98 178 L 97 179 L 97 182 L 98 183 L 98 191 L 99 192 L 99 197 L 100 198 L 100 201 L 101 202 L 102 207 L 105 211 L 106 214 L 114 223 L 115 223 L 117 225 L 123 228 L 126 228 L 127 229 L 138 229 L 139 228 L 143 228 L 147 226 L 149 224 L 151 224 L 153 222 L 154 222 L 157 219 L 158 219 L 158 218 L 160 217 L 166 211 L 166 210 L 172 203 L 177 193 L 177 191 L 178 190 L 178 188 L 179 187 L 179 185 L 181 181 L 182 174 L 183 173 L 183 146 L 182 145 L 182 142 L 181 141 L 181 137 L 180 136 L 179 131 L 177 128 L 177 126 L 174 120 L 168 113 L 168 112 L 154 105 L 151 105 L 150 104 L 146 104 L 145 103 L 133 103 L 132 104 L 129 104 L 128 105 L 124 105 L 118 108 L 116 108 L 112 110 L 110 112 L 109 112 L 106 115 L 105 115 L 95 125 L 95 126 L 90 131 L 89 134 L 85 139 L 81 147 L 80 152 L 78 155 L 78 159 L 77 160 L 77 163 L 76 164 L 76 172 L 75 173 L 75 190 L 76 191 L 76 199 L 77 200 L 77 205 L 78 206 L 78 209 L 81 214 L 81 216 L 83 218 L 83 220 L 84 222 L 86 224 L 86 225 L 88 227 L 90 231 L 102 243 L 103 243 L 105 245 L 115 250 L 118 250 L 122 252 L 128 252 L 129 253 L 131 253 L 132 252 L 134 253 L 136 252 L 145 252 L 146 251 L 149 251 L 150 250 L 155 249 L 158 247 L 160 247 L 164 245 L 166 243 L 167 243 L 169 241 L 173 239 L 181 231 L 181 230 L 185 225 L 186 222 L 188 220 L 195 206 L 195 204 L 198 199 L 198 197 L 199 196 L 199 194 L 201 190 L 201 187 L 203 183 L 203 180 L 204 179 L 204 175 L 205 174 L 205 166 L 206 165 L 206 152 L 205 151 L 205 143 L 204 142 L 204 137 L 203 136 L 203 132 L 201 128 L 201 125 L 198 120 L 198 118 L 193 108 L 190 105 L 190 104 L 187 101 L 187 100 Z"/><path d="M 186 88 L 184 88 L 182 87 L 182 88 L 184 90 L 185 90 L 195 101 L 195 102 L 199 107 L 200 110 L 202 112 L 205 118 L 205 120 L 209 128 L 209 131 L 210 132 L 210 135 L 211 136 L 211 140 L 212 141 L 212 147 L 213 148 L 213 164 L 212 165 L 212 173 L 211 174 L 210 183 L 209 184 L 209 187 L 208 188 L 208 191 L 207 192 L 206 197 L 201 207 L 201 209 L 198 215 L 196 217 L 193 224 L 191 226 L 189 230 L 186 233 L 184 237 L 176 245 L 175 245 L 168 251 L 158 256 L 156 256 L 152 258 L 149 258 L 148 259 L 143 259 L 142 260 L 129 260 L 128 259 L 123 259 L 122 258 L 118 258 L 117 257 L 114 257 L 109 254 L 107 254 L 105 252 L 102 251 L 100 249 L 96 247 L 84 234 L 84 233 L 78 225 L 73 215 L 73 213 L 72 212 L 72 210 L 70 206 L 70 202 L 69 201 L 69 196 L 68 195 L 68 183 L 67 182 L 68 181 L 68 172 L 69 171 L 69 166 L 70 165 L 70 160 L 71 159 L 71 157 L 72 156 L 72 153 L 75 147 L 75 145 L 80 135 L 82 133 L 83 130 L 86 127 L 88 123 L 90 122 L 90 121 L 100 111 L 101 111 L 106 107 L 118 101 L 120 101 L 124 99 L 127 99 L 128 98 L 133 98 L 134 97 L 135 98 L 147 98 L 148 99 L 151 99 L 152 100 L 154 100 L 158 102 L 162 105 L 165 105 L 163 101 L 162 101 L 160 99 L 154 96 L 152 96 L 151 95 L 148 95 L 147 94 L 129 94 L 128 95 L 121 96 L 120 97 L 115 98 L 112 100 L 110 100 L 104 103 L 101 106 L 98 107 L 84 121 L 84 122 L 81 125 L 78 131 L 76 133 L 71 143 L 71 145 L 67 153 L 67 157 L 65 161 L 65 166 L 64 167 L 64 174 L 63 175 L 63 188 L 64 189 L 64 198 L 65 199 L 65 203 L 66 204 L 67 211 L 69 214 L 69 217 L 73 224 L 73 226 L 76 229 L 77 232 L 79 234 L 81 238 L 85 242 L 85 243 L 97 254 L 107 259 L 109 259 L 114 262 L 118 262 L 119 263 L 130 263 L 131 264 L 144 264 L 145 263 L 149 263 L 150 262 L 154 262 L 155 261 L 158 261 L 161 259 L 166 258 L 168 256 L 171 255 L 174 252 L 178 250 L 181 247 L 182 247 L 182 246 L 185 243 L 186 243 L 186 242 L 190 238 L 190 237 L 194 232 L 195 229 L 197 227 L 207 207 L 207 205 L 210 200 L 210 198 L 212 194 L 212 191 L 213 190 L 213 186 L 214 185 L 214 183 L 215 182 L 215 178 L 216 177 L 216 170 L 217 169 L 217 143 L 216 142 L 216 136 L 215 135 L 215 132 L 214 131 L 214 129 L 213 128 L 212 123 L 204 107 L 200 103 L 200 102 L 196 98 L 196 97 Z"/><path d="M 131 83 L 130 84 L 123 84 L 122 85 L 119 85 L 118 86 L 113 87 L 97 95 L 95 97 L 91 99 L 77 113 L 77 114 L 74 116 L 74 117 L 71 120 L 71 121 L 67 126 L 64 133 L 62 135 L 62 137 L 60 140 L 59 145 L 56 150 L 56 152 L 55 153 L 55 156 L 54 157 L 54 161 L 53 162 L 53 167 L 52 168 L 52 175 L 51 176 L 51 178 L 52 180 L 54 179 L 56 179 L 56 172 L 57 171 L 57 167 L 58 166 L 58 160 L 60 156 L 60 152 L 63 147 L 63 145 L 65 142 L 65 140 L 70 130 L 72 128 L 73 125 L 79 118 L 79 117 L 92 104 L 93 104 L 96 101 L 97 101 L 99 99 L 102 98 L 104 96 L 110 93 L 112 93 L 115 91 L 117 91 L 118 90 L 120 90 L 124 88 L 130 88 L 131 87 L 141 87 L 142 88 L 147 88 L 148 89 L 152 89 L 155 91 L 157 91 L 159 92 L 161 94 L 165 96 L 173 105 L 173 106 L 175 108 L 175 110 L 180 116 L 183 122 L 183 124 L 185 127 L 185 129 L 187 133 L 188 140 L 189 141 L 189 146 L 190 147 L 190 158 L 191 159 L 190 160 L 190 170 L 189 171 L 189 176 L 188 177 L 187 184 L 186 185 L 186 187 L 185 188 L 184 193 L 181 198 L 181 200 L 178 204 L 176 209 L 173 212 L 173 213 L 170 216 L 170 217 L 162 225 L 161 225 L 157 229 L 147 234 L 144 234 L 143 235 L 140 235 L 139 236 L 135 236 L 134 237 L 129 237 L 128 236 L 124 236 L 121 234 L 119 234 L 115 232 L 113 230 L 112 230 L 103 221 L 103 220 L 97 212 L 94 206 L 94 204 L 93 203 L 93 199 L 92 198 L 92 193 L 91 192 L 91 167 L 93 163 L 93 159 L 94 158 L 94 156 L 95 155 L 96 150 L 102 138 L 107 132 L 107 131 L 114 124 L 115 124 L 117 122 L 123 119 L 125 119 L 129 117 L 132 117 L 133 116 L 145 116 L 146 117 L 149 117 L 150 118 L 152 118 L 158 121 L 160 123 L 161 123 L 167 129 L 168 129 L 168 127 L 160 118 L 159 118 L 154 114 L 152 114 L 151 113 L 148 113 L 147 112 L 133 112 L 132 113 L 127 113 L 126 114 L 124 114 L 123 115 L 121 115 L 119 116 L 117 118 L 114 119 L 101 132 L 100 135 L 96 140 L 96 142 L 91 151 L 91 153 L 89 157 L 89 160 L 88 161 L 88 166 L 87 167 L 87 172 L 86 173 L 86 188 L 87 189 L 87 196 L 88 197 L 88 201 L 89 202 L 89 205 L 90 206 L 90 208 L 92 211 L 92 213 L 96 218 L 96 220 L 99 223 L 99 224 L 108 233 L 109 233 L 111 235 L 119 239 L 122 239 L 123 240 L 126 240 L 127 241 L 138 241 L 139 240 L 145 240 L 146 239 L 148 239 L 149 238 L 154 237 L 157 234 L 163 231 L 176 218 L 177 215 L 180 212 L 187 198 L 187 196 L 188 195 L 188 193 L 189 192 L 189 190 L 190 189 L 190 187 L 192 183 L 192 180 L 193 179 L 193 174 L 194 173 L 194 161 L 195 160 L 195 153 L 194 152 L 194 144 L 193 143 L 193 138 L 192 137 L 192 134 L 191 133 L 191 131 L 190 130 L 189 125 L 187 122 L 187 120 L 184 116 L 183 113 L 175 102 L 175 101 L 172 98 L 172 97 L 166 91 L 163 90 L 159 87 L 157 87 L 156 86 L 154 86 L 150 84 L 144 84 L 143 83 Z"/><path d="M 174 81 L 172 80 L 170 80 L 165 77 L 160 76 L 157 74 L 153 74 L 152 73 L 143 73 L 142 72 L 140 73 L 138 73 L 137 72 L 135 73 L 134 72 L 132 73 L 123 73 L 122 74 L 119 74 L 118 75 L 114 75 L 113 76 L 111 76 L 110 77 L 105 78 L 99 81 L 97 83 L 94 84 L 92 86 L 89 87 L 87 89 L 86 89 L 82 93 L 81 93 L 80 95 L 77 98 L 76 98 L 74 100 L 74 101 L 67 108 L 67 109 L 64 112 L 64 113 L 60 118 L 58 122 L 58 124 L 56 126 L 56 132 L 58 132 L 58 130 L 61 126 L 62 123 L 64 121 L 65 118 L 72 110 L 72 109 L 77 104 L 77 103 L 82 98 L 83 98 L 92 90 L 95 89 L 97 87 L 109 81 L 112 81 L 116 79 L 119 79 L 120 78 L 124 78 L 125 77 L 136 77 L 137 76 L 142 76 L 143 77 L 151 77 L 152 78 L 159 79 L 162 81 L 169 82 L 172 85 L 174 85 Z"/><path d="M 66 95 L 66 98 L 68 98 L 83 83 L 84 83 L 95 75 L 99 73 L 101 73 L 104 71 L 106 71 L 109 69 L 112 69 L 116 67 L 121 67 L 122 66 L 129 66 L 130 65 L 146 65 L 147 66 L 152 66 L 153 67 L 158 67 L 159 68 L 161 68 L 162 69 L 167 70 L 172 73 L 174 73 L 176 74 L 178 76 L 179 76 L 181 78 L 185 80 L 188 83 L 189 83 L 206 100 L 208 104 L 213 110 L 218 120 L 218 122 L 221 127 L 221 129 L 222 130 L 222 132 L 224 135 L 227 135 L 227 130 L 221 118 L 221 116 L 219 114 L 217 109 L 215 107 L 215 105 L 211 101 L 209 97 L 203 91 L 203 90 L 201 89 L 196 83 L 195 83 L 186 75 L 179 72 L 177 70 L 169 66 L 167 66 L 166 65 L 164 65 L 160 63 L 157 63 L 156 62 L 151 62 L 150 61 L 125 61 L 124 62 L 120 62 L 119 63 L 114 63 L 110 65 L 107 65 L 104 67 L 102 67 L 92 72 L 90 74 L 82 78 L 79 81 L 78 81 L 68 91 Z"/><path d="M 81 68 L 81 71 L 82 71 L 86 68 L 91 66 L 93 64 L 99 61 L 101 61 L 104 59 L 109 58 L 112 56 L 116 56 L 117 55 L 122 55 L 123 54 L 130 54 L 131 53 L 141 53 L 142 54 L 153 54 L 154 55 L 158 55 L 159 56 L 161 56 L 162 57 L 164 57 L 165 58 L 170 59 L 175 62 L 177 62 L 179 64 L 184 66 L 187 69 L 188 69 L 191 72 L 192 72 L 197 77 L 198 77 L 216 96 L 216 97 L 224 108 L 224 110 L 226 112 L 228 111 L 228 109 L 226 106 L 226 104 L 224 100 L 222 98 L 222 97 L 219 94 L 219 93 L 211 85 L 211 84 L 201 74 L 200 74 L 199 72 L 198 72 L 194 68 L 193 68 L 190 65 L 184 62 L 182 60 L 170 54 L 167 54 L 166 53 L 164 53 L 160 51 L 155 51 L 154 50 L 148 50 L 147 49 L 128 49 L 127 50 L 121 50 L 120 51 L 111 52 L 110 53 L 108 53 L 107 54 L 102 55 L 88 62 L 83 67 Z"/><path d="M 99 48 L 99 49 L 104 49 L 107 47 L 109 47 L 113 45 L 117 45 L 118 44 L 123 44 L 124 43 L 133 43 L 134 42 L 136 43 L 154 43 L 155 44 L 158 44 L 162 46 L 164 46 L 164 44 L 165 43 L 167 45 L 167 47 L 169 47 L 170 48 L 175 49 L 178 51 L 180 51 L 182 53 L 190 57 L 198 64 L 199 64 L 204 69 L 205 69 L 206 71 L 207 71 L 211 75 L 211 76 L 212 76 L 219 83 L 220 85 L 223 85 L 223 83 L 222 81 L 219 78 L 219 77 L 205 63 L 204 63 L 200 59 L 199 59 L 196 56 L 195 56 L 190 52 L 176 45 L 173 45 L 172 44 L 169 44 L 168 43 L 166 43 L 162 41 L 157 41 L 156 40 L 148 40 L 147 39 L 128 39 L 127 40 L 121 40 L 120 41 L 114 41 L 113 42 L 111 42 L 110 43 L 105 44 L 103 45 L 100 48 Z"/><path d="M 117 34 L 117 35 L 120 35 L 121 34 L 128 34 L 129 33 L 159 33 L 162 35 L 171 36 L 177 39 L 179 39 L 184 42 L 186 42 L 188 44 L 191 45 L 193 47 L 197 49 L 200 52 L 201 52 L 207 58 L 210 58 L 210 56 L 209 54 L 207 53 L 199 46 L 198 46 L 195 43 L 193 43 L 189 39 L 185 37 L 183 37 L 181 35 L 177 35 L 171 32 L 167 32 L 166 31 L 161 31 L 160 30 L 155 30 L 154 29 L 139 29 L 138 30 L 132 30 L 128 32 L 123 32 L 122 33 Z"/>
  </g>
</svg>
